<svg id="Contenido" xmlns="http://www.w3.org/2000/svg" viewBox="0 0 1080 300"><path d="M275,150l25-12.5a14,14,0,0,0,0-25h0a111.79,111.79,0,0,0-100,0h0a111.79,111.79,0,0,1-100,0l-50-25v22.19a45,45,0,0,0,24.88,40.25L75,150a167.68,167.68,0,0,0,150,0h0a55.89,55.89,0,0,1,50,0Z" style="fill:#091b2d"/><path d="M175,100V50L125,75a14,14,0,0,0,0,25h0a55.89,55.89,0,0,0,50,0Z" style="fill:#d2d206"/><path d="M200,212.5,175,200v50l25,12.5,150.12-75.06A45,45,0,0,0,375,147.19V125Z" style="fill:#d2d206"/><text transform="translate(450 152.62)" style="font-size:135px;fill:#091b2d;font-family:Roboto-Black, Roboto;font-weight:800"><tspan style="letter-spacing:0.15em">SUC<tspan x="323.56" y="0" style="letter-spacing:0.13584346064814815em">I</tspan><tspan x="382.64" y="0" style="letter-spacing:0.1206958912037037em">T</tspan></tspan><tspan style="font-size:42px;fill:#d2d206;font-family:Roboto-Light, Roboto;font-weight:300"><tspan x="0" y="54">Sudamericana de Capacitación</tspan><tspan x="0" y="96">Inn</tspan><tspan x="57.32" y="96" style="letter-spacing:-0.00732421875em">ov</tspan><tspan x="100.43" y="96">ación y</tspan><tspan x="230.73" y="96" style="letter-spacing:-0.01953125em"> </tspan><tspan x="240.13" y="96" style="letter-spacing:-0.04833984375em">T</tspan><tspan x="263.18" y="96">ecnología</tspan></tspan></text></svg>