<svg id="Contenido" xmlns="http://www.w3.org/2000/svg" viewBox="0 0 425 619.82"><text transform="translate(50 394.75)" style="font-size:93px;fill:#091b2d;font-family:Roboto-Black, Roboto;font-weight:800"><tspan style="letter-spacing:0.1500021001344086em">SUC<tspan x="222.9" y="0" style="letter-spacing:0.1358366935483871em">I</tspan><tspan x="263.6" y="0" style="letter-spacing:0.12071572580645161em">T</tspan></tspan><tspan style="font-size:42px;fill:#424857;font-family:Roboto-Light, Roboto;font-weight:300"><tspan x="0" y="48">Sudamericana de</tspan><tspan x="0" y="90">Capacitación</tspan><tspan x="0" y="132">Inn</tspan><tspan x="57.32" y="132" style="letter-spacing:-0.00732421875em">ov</tspan><tspan x="100.43" y="132">ación y</tspan><tspan x="0" y="174" style="letter-spacing:-0.04833984375em">T</tspan><tspan x="23.05" y="174">ecnología</tspan></tspan></text><path d="M275,150l25-12.5a14,14,0,0,0,0-25h0a111.79,111.79,0,0,0-100,0h0a111.79,111.79,0,0,1-100,0l-50-25v22.19a45,45,0,0,0,24.88,40.25L75,150a167.68,167.68,0,0,0,150,0h0a55.89,55.89,0,0,1,50,0Z" style="fill:#091b2d"/><path d="M175,100V50L125,75a14,14,0,0,0,0,25h0a55.89,55.89,0,0,0,50,0Z" style="fill:#424857"/><path d="M200,212.5,175,200v50l25,12.5,150.12-75.06A45,45,0,0,0,375,147.19V125Z" style="fill:#424857"/></svg>